<svg xmlns="http://www.w3.org/2000/svg" width="42" height="42" fill="none" viewBox="0 0 42 42"><path fill="#FECF06" d="M42 21c0 11.598-9.402 21-21 21S0 32.598 0 21 9.402 0 21 0s21 9.402 21 21Z"/><path fill="#524000" d="M12.184 19.74c.402 0 .686-.04.853-.117.167-.079.25-.23.25-.456 0-.177-.108-.329-.324-.456-.215-.137-.543-.289-.984-.456-.343-.127-.657-.26-.941-.396a2.895 2.895 0 0 1-.706-.486 2.07 2.07 0 0 1-.456-.69 2.53 2.53 0 0 1-.161-.956c0-.725.27-1.299.808-1.72.54-.421 1.28-.632 2.22-.632.47 0 .921.044 1.352.132.432.079.775.167 1.03.265l-.383 1.705a7.858 7.858 0 0 0-.838-.235 4.415 4.415 0 0 0-1-.103c-.685 0-1.028.191-1.028.573 0 .088.014.167.044.236.03.068.088.137.176.205.088.06.206.128.353.206.157.069.353.147.588.235.48.177.877.353 1.19.53.314.166.56.352.736.558.186.196.313.417.382.662.078.245.117.529.117.852 0 .765-.289 1.343-.867 1.735-.568.392-1.377.588-2.425.588-.686 0-1.26-.059-1.72-.177-.451-.117-.765-.215-.941-.294l.367-1.778c.373.147.755.264 1.147.352.392.079.78.118 1.161.118ZM17.1 21.313V10.259l2.19-.353v3.704c.147-.049.333-.093.558-.132.235-.05.46-.074.676-.074.628 0 1.147.089 1.559.265.421.167.754.407 1 .72.254.314.43.686.528 1.118.108.43.162.91.162 1.44v4.366h-2.19v-4.101c0-.706-.093-1.206-.28-1.5-.176-.294-.51-.44-1-.44-.195 0-.381.019-.558.058-.166.03-.318.064-.455.103v5.88H17.1ZM28.71 19.784c.216 0 .422-.005.618-.014.196-.01.353-.025.47-.045v-1.66c-.088-.02-.22-.04-.397-.06a4.42 4.42 0 0 0-.485-.029c-.206 0-.402.015-.588.044-.176.02-.333.064-.47.133a.82.82 0 0 0-.324.279.778.778 0 0 0-.117.44c0 .344.112.584.338.721.235.128.554.191.955.191Zm-.176-6.409c.647 0 1.186.073 1.617.22.431.147.774.358 1.029.633.265.274.45.607.559 1 .107.391.161.827.161 1.307v4.558c-.313.068-.75.146-1.308.235-.559.098-1.235.147-2.029.147-.5 0-.955-.044-1.367-.133a3.036 3.036 0 0 1-1.043-.426 2.04 2.04 0 0 1-.677-.794c-.156-.323-.235-.72-.235-1.19 0-.451.088-.833.265-1.147.186-.314.431-.564.735-.75a3.168 3.168 0 0 1 1.044-.397 5.542 5.542 0 0 1 1.22-.132c.284 0 .534.015.75.044.225.02.406.05.543.088v-.205c0-.373-.112-.672-.338-.897-.225-.226-.617-.338-1.176-.338-.372 0-.74.03-1.102.088a4.436 4.436 0 0 0-.941.22l-.28-1.764c.128-.039.285-.078.47-.117a5.59 5.59 0 0 1 .633-.118c.225-.039.46-.068.706-.088.254-.03.51-.044.764-.044Z"/><path fill="#F3F3F3" d="M16.022 24.525c0 .34-.067.668-.202.981-.134.314-.309.619-.524.914a7.786 7.786 0 0 1-.726.833c-.268.27-.533.525-.793.767a18.01 18.01 0 0 0-.443.43c-.152.152-.3.309-.444.47-.143.161-.273.314-.39.457a1.094 1.094 0 0 0-.201.336h4.005v1.68h-6.21a2.158 2.158 0 0 1-.026-.376v-.323c0-.43.067-.824.202-1.183.143-.358.327-.69.55-.994.225-.314.476-.605.753-.874.287-.268.57-.537.847-.806l.605-.578c.188-.188.354-.367.497-.538.143-.179.255-.354.336-.524.08-.179.121-.358.121-.537 0-.395-.112-.672-.336-.834-.224-.161-.502-.242-.833-.242-.242 0-.47.04-.686.121a3.099 3.099 0 0 0-.578.27c-.17.098-.318.2-.443.308-.126.099-.22.18-.282.242l-.995-1.398a4.985 4.985 0 0 1 1.37-.9 4.022 4.022 0 0 1 1.694-.363c.547 0 1.017.063 1.412.188.394.126.716.305.967.538.26.224.448.502.565.833.125.323.188.69.188 1.102ZM21.833 28.651c0-.26-.058-.488-.175-.685-.116-.206-.318-.377-.605-.51-.286-.135-.672-.238-1.156-.31-.483-.072-1.093-.108-1.827-.108.098-.833.179-1.68.241-2.54.063-.86.113-1.666.148-2.419h5.04v1.68h-3.36c-.018.323-.04.636-.067.94-.018.297-.04.556-.067.78 1.308.09 2.271.4 2.89.928.627.52.94 1.245.94 2.177 0 .43-.076.829-.228 1.196-.152.368-.38.686-.686.954-.304.27-.69.48-1.155.632-.457.152-.995.229-1.613.229-.242 0-.497-.018-.766-.054a7.171 7.171 0 0 1-.766-.121 8.188 8.188 0 0 1-.659-.148 2.597 2.597 0 0 1-.457-.161l.363-1.653c.224.098.52.197.887.295.367.09.806.135 1.317.135.618 0 1.066-.121 1.344-.363.278-.251.417-.542.417-.874ZM28.316 27.012c-.197 0-.408.017-.632.053a1.863 1.863 0 0 0-.524.148c0 .036-.005.09-.014.162v.188c0 .322.023.627.068.914.044.286.12.537.228.752.108.215.251.386.43.51.18.117.403.176.672.176.224 0 .412-.045.565-.135.161-.098.29-.22.39-.363.107-.143.183-.3.228-.47.054-.18.08-.35.08-.51 0-.458-.116-.807-.349-1.05-.224-.25-.605-.375-1.142-.375Zm.255-1.56c.582 0 1.075.081 1.478.242.413.153.749.363 1.009.632.26.269.448.582.564.94.116.36.175.74.175 1.143 0 .359-.067.726-.202 1.102a2.934 2.934 0 0 1-.591 1.022c-.26.304-.596.555-1.008.752-.403.198-.883.296-1.438.296-1.12 0-1.972-.354-2.554-1.062-.582-.707-.874-1.684-.874-2.93 0-.895.14-1.688.417-2.378a4.665 4.665 0 0 1 1.183-1.734 5.137 5.137 0 0 1 1.868-1.075c.735-.251 1.559-.381 2.473-.39a381.723 381.723 0 0 0 .107 1.64 7.296 7.296 0 0 0-1.29.134 4.188 4.188 0 0 0-1.088.35 2.95 2.95 0 0 0-.847.631c-.242.251-.43.56-.565.928.197-.09.4-.153.605-.189.206-.035.399-.053.578-.053Z"/></svg>